<svg width="323" height="216" viewBox="0 0 323 216" fill="none" xmlns="http://www.w3.org/2000/svg">
<g clip-path="url(#clip0_140_980)">
<path d="M196.739 203.804C192.67 197.34 185.416 193.034 177.139 193.034H144.903C136.626 193.034 129.372 197.341 125.304 203.804H196.739Z" fill="#FFC9C9"/>
<path d="M164.74 172.475H157.302V199.398H164.74V172.475Z" fill="#FFC9C9"/>
<path d="M288.129 175.777H34.8707C29.8226 175.777 25.7305 171.737 25.7305 166.755V31.6278C25.7305 26.6451 29.8226 22.606 34.8707 22.606H288.129C293.177 22.606 297.269 26.6451 297.269 31.6278V166.755C297.27 171.737 293.177 175.777 288.129 175.777Z" fill="#FFC9C9"/>
<path d="M286.731 175.148H36.2691C31.221 175.148 27.1289 171.109 27.1289 166.126V32.974C27.1289 27.9913 31.221 23.9521 36.2691 23.9521H286.731C291.78 23.9521 295.872 27.9913 295.872 32.974V166.126C295.872 171.108 291.78 175.148 286.731 175.148Z" stroke="#003540" stroke-width="0.75" stroke-miterlimit="10" stroke-linecap="round" stroke-linejoin="round"/>
<path d="M287.266 170.635H35.7357C32.3554 170.635 29.6152 167.93 29.6152 164.593V38.6306H293.386V164.593C293.386 167.93 290.646 170.635 287.266 170.635Z" fill="white"/>
<path d="M287.717 66.0439H34.6289V163.043H287.717V66.0439Z" fill="#FFC9C9"/>
<path d="M293.481 50.679H29.5205V33.7656C29.5205 29.7987 32.7787 26.5828 36.7976 26.5828H286.204C290.223 26.5828 293.481 29.7987 293.481 33.7656V50.679Z" fill="#7AC1B3"/>
<path d="M87.0776 54.7847H37.9795V61.3934H87.0776V54.7847Z" fill="#7AC1B3"/>
<path d="M284.634 54.7847H93.6455V61.3934H284.634V54.7847Z" fill="#7AC1B3"/>
<path d="M87.0776 122.324H37.9795V150.145H87.0776V122.324Z" fill="white"/>
<path d="M284.634 69.824H242.676V116.806H284.634V69.824Z" fill="white"/>
<path d="M233.005 69.824H93.8252V96.1491H233.005V69.824Z" fill="white"/>
<path d="M231.287 72.0486H95.2998V94.077H231.287V72.0486Z" stroke="#003540" stroke-width="0.75" stroke-miterlimit="10" stroke-linecap="round" stroke-linejoin="round"/>
<path d="M172.005 102.512H93.8252V149.506H172.005V102.512Z" fill="white"/>
<path d="M170.02 104.357H95.3125V148.413H170.02V104.357Z" stroke="#003540" stroke-width="0.75" stroke-miterlimit="10" stroke-linecap="round" stroke-linejoin="round"/>
<path d="M87.0776 69.824H37.9795V116.806H87.0776V69.824Z" fill="white"/>
<path d="M43.0596 76.5684H80.2548" stroke="#A9E6E2" stroke-width="6" stroke-miterlimit="10" stroke-linecap="round" stroke-linejoin="round"/>
<path d="M43.0596 82.4426H80.2548" stroke="#A9E6E2" stroke-width="6" stroke-miterlimit="10" stroke-linecap="round" stroke-linejoin="round"/>
<path d="M43.0596 88.3167H80.2548" stroke="#A9E6E2" stroke-width="6" stroke-miterlimit="10" stroke-linecap="round" stroke-linejoin="round"/>
<path d="M43.0596 94.1909H80.2548" stroke="#A9E6E2" stroke-width="6" stroke-miterlimit="10" stroke-linecap="round" stroke-linejoin="round"/>
<path d="M43.0596 100.065H80.2548" stroke="#A9E6E2" stroke-width="6" stroke-miterlimit="10" stroke-linecap="round" stroke-linejoin="round"/>
<path d="M233.501 102.512H180.932V149.506H233.501V102.512Z" fill="white"/>
<path d="M186.489 112.058H227.116" stroke="#A9E6E2" stroke-width="6" stroke-miterlimit="10" stroke-linecap="round" stroke-linejoin="round"/>
<path d="M186.489 117.932H227.116" stroke="#A9E6E2" stroke-width="6" stroke-miterlimit="10" stroke-linecap="round" stroke-linejoin="round"/>
<path d="M186.489 123.807H227.116" stroke="#A9E6E2" stroke-width="6" stroke-miterlimit="10" stroke-linecap="round" stroke-linejoin="round"/>
<path d="M186.489 129.681H227.116" stroke="#A9E6E2" stroke-width="6" stroke-miterlimit="10" stroke-linecap="round" stroke-linejoin="round"/>
<path d="M186.489 135.555H227.116" stroke="#A9E6E2" stroke-width="6" stroke-miterlimit="10" stroke-linecap="round" stroke-linejoin="round"/>
<path d="M282.103 71.804H245.207V114.827H282.103V71.804Z" stroke="#003540" stroke-width="0.75" stroke-miterlimit="10" stroke-linecap="round" stroke-linejoin="round"/>
<path d="M119.767 92.0902H98.0864C97.7891 92.0902 97.5479 91.8525 97.5479 91.5591V75.1295C97.5479 74.8361 97.7891 74.5979 98.0864 74.5979H119.767C120.064 74.5979 120.305 74.8361 120.305 75.1295V91.5591C120.305 91.852 120.064 92.0902 119.767 92.0902Z" fill="#7AC1B3"/>
<path d="M156.393 92.0902H125.239C124.942 92.0902 124.701 91.8525 124.701 91.5591V75.1295C124.701 74.8361 124.942 74.5979 125.239 74.5979H156.393C156.69 74.5979 156.931 74.8361 156.931 75.1295V91.5591C156.931 91.852 156.69 92.0902 156.393 92.0902Z" fill="#7AC1B3"/>
<path d="M250.94 43.3302C253.086 43.3302 254.825 41.6134 254.825 39.4956C254.825 37.3779 253.086 35.6611 250.94 35.6611C248.795 35.6611 247.056 37.3779 247.056 39.4956C247.056 41.6134 248.795 43.3302 250.94 43.3302Z" fill="#C85A43"/>
<path d="M264.538 43.3302C266.684 43.3302 268.423 41.6134 268.423 39.4956C268.423 37.3779 266.684 35.6611 264.538 35.6611C262.393 35.6611 260.653 37.3779 260.653 39.4956C260.653 41.6134 262.393 43.3302 264.538 43.3302Z" fill="white"/>
<path d="M278.135 43.3302C280.28 43.3302 282.02 41.6134 282.02 39.4956C282.02 37.3779 280.28 35.6611 278.135 35.6611C275.989 35.6611 274.25 37.3779 274.25 39.4956C274.25 41.6134 275.989 43.3302 278.135 43.3302Z" fill="#161111"/>
<path d="M36.4473 36.052V46.2613H39.6983C39.5006 45.7685 39.3866 45.2151 39.3866 44.6278C39.3866 42.5978 40.7141 40.9525 42.3518 40.9525C43.9895 40.9525 45.317 42.5983 45.317 44.6278C45.317 45.2151 45.2031 45.7685 45.0049 46.2613H48.4455V36.052H36.4473Z" fill="white"/>
<path d="M50.7978 36.634L42.3752 30.4336L34.0947 36.634H50.7978Z" fill="#C85A43"/>
<path d="M36.1748 36.7329H48.5866" stroke="#003540" stroke-width="0.75" stroke-miterlimit="10" stroke-linecap="round" stroke-linejoin="round"/>
<path d="M151.185 209.002C155.922 208.918 161.077 208.876 164.907 209.873C165.825 210.111 166.7 210.474 166.506 210.872C166.358 211.176 165.629 211.398 164.902 211.566C158.793 212.975 150.827 212.315 143.55 212.275C139.429 212.252 107.102 213.711 112.294 210.488C114.811 208.926 125.799 209.454 129.882 209.381C136.983 209.255 144.084 209.129 151.185 209.002Z" fill="#FFDEDE"/>
<path d="M251.636 211.628C254.669 211.683 257.703 211.752 260.735 211.835C263.11 211.899 265.492 211.973 267.838 212.343C269.086 212.54 272.545 213.711 270.636 215.036C269.64 215.728 267.634 215.67 266.48 215.756C263.57 215.972 260.659 215.861 257.745 215.873C251.726 215.899 245.713 215.7 239.695 215.678C229.695 215.641 219.696 216.035 209.694 215.998C206.045 215.984 202.393 215.945 198.747 215.797C197.39 215.741 189.929 215.991 190.845 213.256C191.434 211.497 197.811 212.065 199.384 212.014C216.794 211.439 234.219 211.311 251.636 211.628Z" fill="#FFDEDE"/>
<path d="M33.9217 202.512C35.4426 202.437 37.0976 202.399 38.3269 203.288C38.6213 203.501 38.9024 203.824 38.8401 204.18C38.7927 204.451 38.5586 204.649 38.3255 204.799C36.3642 206.056 33.8068 205.468 31.4707 205.432C30.148 205.412 19.7693 206.713 21.4367 203.837C22.2448 202.444 25.7725 202.914 27.0827 202.85C29.3624 202.737 31.6421 202.624 33.9217 202.512Z" fill="#FFDEDE"/>
<path d="M90.2075 208.741C93.2407 208.796 96.2739 208.865 99.3066 208.947C101.681 209.012 104.064 209.085 106.409 209.455C107.657 209.652 111.116 210.823 109.207 212.149C108.212 212.841 106.205 212.783 105.052 212.869C102.141 213.085 99.2305 212.973 96.316 212.986C90.2975 213.012 84.2843 212.813 78.2663 212.79C68.2667 212.754 58.2672 213.148 48.2658 213.11C44.6165 213.097 40.9648 213.058 37.3179 212.91C35.9612 212.854 28.5003 213.104 29.4166 210.368C30.0054 208.611 36.3825 209.178 37.9555 209.127C55.3657 208.551 72.7907 208.423 90.2075 208.741Z" fill="#FFDEDE"/>
<path d="M1.90171 137.932C1.3507 135.392 0.882028 132.834 0.430594 130.313C0.264956 129.386 0.107936 128.387 0.52586 127.541C1.14868 126.28 2.87112 125.875 4.22829 126.291C5.58547 126.707 6.65062 127.732 7.63248 128.746C13.5145 134.823 18.2271 141.878 21.8117 149.491C23.606 153.3 24.9411 157.261 26.8761 160.99C28.9988 165.081 30.7744 169.346 32.1842 173.727C34.3212 180.366 35.4496 187.191 36.0886 194.105C34.415 190.129 32.7275 186.159 31.0266 182.194C29.0888 177.678 26.6617 173.518 23.1253 170.039C19.6685 166.637 15.5247 163.99 12.1799 160.47C6.37871 154.363 3.70266 146.237 1.90171 137.932Z" fill="#B8DED8"/>
<path d="M11.9062 146.63C16.0036 152.87 19.8056 158.248 24.8341 163.786C29.1292 168.516 30.9943 175.396 32.6928 181.367C34.8619 188.991 36.7529 196.47 36.9027 204.455" stroke="#003540" stroke-width="0.75" stroke-miterlimit="10" stroke-linecap="round" stroke-linejoin="round"/>
<path d="M31.8904 174.642C32.7852 167.513 33.6655 160.286 36.3516 153.61C37.8199 149.961 39.8726 146.5 42.5635 143.596C44.005 142.041 48.4437 136.697 50.9842 139.778C52.0614 141.085 51.3691 144.955 51.1226 146.467C50.7185 148.943 49.8904 151.348 48.8171 153.617C46.501 158.514 43.1519 162.859 40.4801 167.579C34.409 178.307 33.9255 190.211 29.5816 201.263C26.2544 198.533 31.2777 179.521 31.8904 174.642Z" fill="#7AC1B3"/>
<path d="M20.3609 182.104C18.3522 178.941 14.8805 177.045 11.9622 174.671C9.15883 172.391 6.79587 169.586 5.03704 166.447C4.42332 165.352 2.71907 162.713 1.14887 163.317C-0.981924 164.136 0.404453 169.722 0.932483 171.105C3.56402 178.005 9.86973 182.537 15.4636 187.009C16.9433 188.192 18.4116 189.39 19.8157 190.66C20.4935 191.273 21.1565 191.902 21.7961 192.554C22.3869 193.156 23.2787 193.821 23.6478 194.561C24.0222 195.313 24.3965 196.063 24.7709 196.815C25.0332 197.341 25.3473 197.915 25.9083 198.109C25.9576 198.126 26.0146 198.139 26.0596 198.114C26.097 198.093 26.1161 198.051 26.1309 198.011C26.3129 197.515 25.86 196.797 25.703 196.313C25.4832 195.638 25.275 194.959 25.0711 194.279C24.6483 192.87 24.2462 191.455 23.8058 190.051C22.9403 187.294 21.9206 184.559 20.3609 182.104Z" fill="#B8DED8"/>
<path d="M29.0127 204.78C30.3388 187.514 34.6314 170.474 41.6529 154.605" stroke="#003540" stroke-width="0.75" stroke-miterlimit="10" stroke-linecap="round" stroke-linejoin="round"/>
<path d="M27.547 204.559C26.95 199.029 24.7144 193.681 21.1867 189.344C16.9988 184.196 11.1556 180.57 6.86621 175.504" stroke="#003540" stroke-width="0.75" stroke-miterlimit="10" stroke-linecap="round" stroke-linejoin="round"/>
<path d="M280.239 198.677C281.76 198.602 283.415 198.564 284.644 199.454C284.939 199.667 285.22 199.99 285.158 200.345C285.11 200.617 284.876 200.815 284.643 200.964C282.682 202.221 280.124 201.633 277.788 201.597C276.465 201.577 266.087 202.878 267.754 200.002C268.562 198.609 272.09 199.079 273.4 199.015C275.68 198.902 277.959 198.79 280.239 198.677Z" fill="#FFDEDE"/>
<path d="M309.471 112.849C307.844 121.4 301.648 127.089 297.843 134.5C293.747 142.477 289.434 150.65 287.687 159.506C285.958 168.278 283.317 176.873 279.821 185.116C279.168 185.305 278.723 184.473 278.592 183.814C277.425 177.949 278.663 171.9 280.061 166.085C282.523 155.849 285.493 145.733 288.956 135.784C291.839 127.499 296.205 118.591 302.013 111.832C303.071 110.601 304.295 109.395 305.829 108.882C305.957 108.839 306.088 108.801 306.221 108.768C309.374 107.99 309.923 110.475 309.471 112.849Z" fill="#B8DED8"/>
<path d="M302.334 117.679C287.077 138.13 282.688 162.339 279.278 186.952C278.674 191.313 278.13 195.684 277.647 200.06" stroke="#003540" stroke-width="0.75" stroke-miterlimit="10" stroke-linecap="round" stroke-linejoin="round"/>
<path d="M303.319 133.956C305.262 130.9 307.91 128.827 312.209 129.52C312.716 134.729 311.145 138.937 308.127 143.205C306.738 145.168 306.033 147.139 304.872 149.172C301.725 154.679 298.278 160.01 294.813 165.324C293.041 168.041 291.262 170.754 289.515 173.486C288.68 174.79 287.793 176.083 287.026 177.428C286.877 177.69 285.031 180.008 285.037 179.93C285.671 171.626 287.439 163.593 291.253 156.109C293.089 152.505 295.8 149.569 297.74 146.135C299.67 142.719 300.985 137.628 303.319 133.956Z" fill="#7AC1B3"/>
<path d="M302.973 162.537C307.059 158.173 311.333 153.678 316.909 151.436C317.968 151.01 319.283 150.706 320.171 151.416C320.921 152.016 321.038 153.111 320.88 154.051C320.585 155.81 319.567 157.364 318.471 158.781C311.31 168.037 300.455 173.3 291.005 179.875C288.439 181.661 286.097 184.021 283.506 185.664C283.662 183.792 286.028 181.708 287.171 180.286C288.824 178.23 290.53 176.216 292.268 174.23C295.747 170.255 299.361 166.396 302.973 162.537Z" fill="#7AC1B3"/>
<path d="M306.628 138.002C292.155 156.276 283.711 177.867 280.253 200.711" stroke="#003540" stroke-width="0.75" stroke-miterlimit="10" stroke-linecap="round" stroke-linejoin="round"/>
<path d="M283.509 185.365C290.808 178.187 298.179 171.733 306.26 165.424" stroke="#003540" stroke-width="0.75" stroke-miterlimit="10" stroke-linecap="round" stroke-linejoin="round"/>
<path d="M285.186 205.937C284.758 206.039 284.386 206.197 284.14 206.441C283.155 207.42 284.14 208.13 285.257 208.332C288.055 208.838 290.912 209.028 293.755 208.898C294.902 208.846 296.254 209.005 297.338 208.552C298.817 207.933 298.907 206.124 297.366 205.449C296.669 205.144 295.873 205.188 295.112 205.238C292.748 205.393 290.385 205.548 288.021 205.703C287.321 205.749 286.122 205.712 285.186 205.937Z" fill="#FFDEDE"/>
<path d="M284.194 182.019C281.93 175.453 279.64 168.831 276.038 162.876C274.465 160.276 271.725 157.49 268.826 158.484C265.884 159.493 265.531 163.492 266.283 166.475C268.051 173.489 272.764 179.19 277.449 184.547C279.911 187.362 282.448 190.121 284.73 193.084C286.634 195.556 287.987 198.662 289.898 200.984C290.414 195.059 286.088 187.513 284.194 182.019Z" fill="#B8DED8"/>
<path d="M275.769 174.375C282.837 184.307 290.151 194.89 291.079 206.992" stroke="#003540" stroke-width="0.75" stroke-miterlimit="10" stroke-linecap="round" stroke-linejoin="round"/>
<path d="M309.71 172.972C312.74 170.852 316.388 169.108 320.048 169.726C321.063 169.898 322.124 170.311 322.648 171.186C323.209 172.124 323 173.314 322.703 174.363C321.121 179.95 317.436 184.931 312.527 188.12C307.594 191.326 301.425 192.841 297.489 197.188C296.419 198.369 295.571 199.74 294.393 200.803C291.311 199.048 297.063 187.762 298.39 185.444C301.194 180.547 305.057 176.229 309.71 172.972Z" fill="#C85A43"/>
<path d="M293.028 207.613C292.893 202.681 294.347 197.719 297.128 193.619C300.632 188.455 306.019 184.828 309.985 180.001" stroke="#003540" stroke-width="0.75" stroke-miterlimit="10" stroke-linecap="round" stroke-linejoin="round"/>
<path d="M235.298 208.33C235.219 208.548 235.111 208.751 234.943 208.91C234.469 209.36 233.702 209.297 233.079 209.089C232.379 208.855 231.825 208.667 231.103 208.619C230.462 208.576 229.782 208.706 229.472 207.99C229.273 207.53 229.318 206.979 229.367 206.448C229.525 204.716 229.683 202.978 230.08 201.241C230.469 199.539 230.874 198.081 232.391 197.013C233.289 196.38 234.536 196.026 235.486 196.581C236.25 197.026 236.606 197.931 236.752 198.794C237.072 200.684 236.64 202.61 236.21 204.478C235.957 205.579 235.703 206.681 235.449 207.783C235.407 207.965 235.362 208.153 235.298 208.33Z" fill="#D98C73"/>
<path d="M235.338 207.725C235.283 207.723 235.227 207.727 235.174 207.734C233.27 207.945 230.902 208.146 229.113 207.378C228.104 208.765 226.513 209.639 224.878 210.196C223.665 210.61 222.408 210.869 221.165 211.174C220.077 211.441 218.739 211.524 217.75 212.053C217.177 212.36 216.693 212.904 216.64 213.545C216.627 213.706 216.643 213.874 216.727 214.012C216.887 214.273 217.23 214.346 217.536 214.391C222.925 215.188 228.45 214.931 233.875 214.703C234.273 214.686 234.734 214.636 234.947 214.303C235.066 214.119 235.076 213.888 235.083 213.669C235.128 212.211 235.393 210.955 235.573 209.534C235.613 209.221 235.8 208.089 235.582 207.822C235.525 207.751 235.434 207.728 235.338 207.725Z" fill="#161111"/>
<path d="M262.957 206.659C262.861 207.102 262.715 207.547 262.371 207.837C261.988 208.16 261.446 208.215 260.941 208.218C258.739 208.231 257.129 207.893 256.937 205.543C256.744 203.183 256.268 200.876 256.088 198.516C256.001 197.376 256.153 195.841 256.821 194.88C257.319 194.166 257.968 193.531 258.774 193.186C259.579 192.841 260.554 192.82 261.31 193.263C262.339 193.866 262.732 195.129 262.962 196.289C263.626 199.634 263.638 203.103 262.999 206.452C262.985 206.521 262.972 206.59 262.957 206.659Z" fill="#D98C73"/>
<path d="M263.272 205.875C263.219 205.65 260.954 206.066 260.762 206.095C259.536 206.277 258.264 206.75 257.062 206.44C256.696 207.731 255.457 208.566 254.272 209.222C252.667 210.112 250.994 210.883 249.273 211.528C248.127 211.957 246.774 212.538 246.581 213.733C247.064 214.361 247.984 214.413 248.783 214.405C253.472 214.363 258.159 214.212 262.844 213.99C263.362 213.965 263.973 213.884 264.213 213.43C264.359 213.153 264.314 212.82 264.265 212.512C263.917 210.313 263.768 208.04 263.272 205.875Z" fill="#161111"/>
<path d="M258.713 201.204C260.541 201.185 262.36 200.942 264.188 200.885C266.059 200.826 267.933 200.847 269.802 200.717C270.203 200.689 270.609 200.654 271.015 200.61C271.134 200.413 271.208 200.183 271.218 199.957C271.26 199.014 270.743 198.061 270.648 197.116C270.563 196.28 270.579 195.453 270.464 194.616C270.211 192.78 270.211 190.888 269.771 189.08C269.144 186.513 267.645 184.198 267.171 181.598C266.717 179.11 267.237 176.563 267.34 174.036C267.504 169.98 266.568 166.019 265.436 162.149C264.526 159.039 264.519 156.27 264.41 153.03C264.092 143.585 265.37 132.804 259.623 124.828C258.171 122.814 255.793 121.268 253.376 121.455C251.608 121.592 250.245 122.542 249.228 123.904C246.259 127.881 247.915 138.688 248.443 143.406C249.143 149.661 250.342 155.777 250.981 162.059C252.288 174.922 253.69 187.779 255.178 200.631C256.295 201.039 257.463 201.217 258.713 201.204Z" fill="#4B98B8"/>
<path d="M249.401 124.955C242.853 124.254 240.215 130.826 238.948 135.951C236.273 146.775 234.083 157.715 232.383 168.729C231.538 174.208 230.586 179.671 229.887 185.17C229.164 190.798 228.78 196.729 228.503 202.37C231.034 203.188 233.752 203.35 236.412 203.375C238.817 203.397 241.225 203.32 243.624 203.443C244.077 203.094 244.203 202.456 244.282 201.882C244.626 199.395 244.97 196.885 244.781 194.382C244.583 191.763 243.803 189.185 243.907 186.56C244.008 183.996 244.947 181.548 245.527 179.048C246.72 173.912 246.449 168.607 247.041 163.399C247.63 158.23 250.034 154.797 251.812 150.184C254.38 143.518 261.978 126.302 249.401 124.955Z" fill="#4B98B8"/>
<path d="M249.178 156.35C252.389 150.387 255.243 144.238 257.721 137.945" stroke="#003540" stroke-width="0.75" stroke-miterlimit="10" stroke-linecap="round" stroke-linejoin="round"/>
<path d="M234.438 164.644C234.297 166.333 234.156 168.02 234.015 169.709" stroke="#003540" stroke-width="0.75" stroke-miterlimit="10" stroke-linecap="round" stroke-linejoin="round"/>
<path d="M243.679 179.698C242.861 181.828 242.563 184.15 242.818 186.413C243.011 188.137 243.517 189.892 243.094 191.575" stroke="#003540" stroke-width="0.75" stroke-miterlimit="10" stroke-linecap="round" stroke-linejoin="round"/>
<path d="M242.923 194.346C242.923 194.998 242.923 195.652 242.923 196.304" stroke="#003540" stroke-width="0.75" stroke-miterlimit="10" stroke-linecap="round" stroke-linejoin="round"/>
<path d="M264.065 172.967C264.047 173.815 264.768 174.481 265.104 175.262C265.69 176.62 265.071 178.164 265.052 179.639C265.038 180.724 265.364 181.81 265.975 182.712" stroke="#003540" stroke-width="0.75" stroke-miterlimit="10" stroke-linecap="round" stroke-linejoin="round"/>
<path d="M266.729 185.862C267.049 186.815 267.271 187.801 267.39 188.799" stroke="#003540" stroke-width="0.75" stroke-miterlimit="10" stroke-linecap="round" stroke-linejoin="round"/>
<path d="M236.176 97.4721C236.284 96.9055 236.715 96.4098 237.267 96.2203C237.837 96.0242 238.629 96.0361 238.819 95.4714C238.914 95.1884 238.781 94.8652 238.55 94.6724C238.32 94.4796 238.012 94.4007 237.711 94.3822C236.785 94.326 235.849 94.8396 235.408 95.6453C235.273 95.8929 235.077 96.2166 234.804 96.1381C234.674 96.1008 234.59 95.9779 234.537 95.8556C234.215 95.1109 234.66 94.2778 235.092 93.5889C235.431 93.0469 235.793 92.4827 236.355 92.1685C236.984 91.816 237.753 91.8387 238.475 91.8878C239.933 91.987 241.462 92.0966 242.694 92.9529C243.017 93.1773 243.312 93.4386 243.634 93.664C244.461 94.2428 245.438 94.5675 246.4 94.8845C246.099 95.9127 245.799 96.9414 245.499 97.9696C245.484 98.023 245.464 98.0811 245.416 98.1095C245.366 98.1397 245.301 98.127 245.243 98.1128C243.473 97.6861 241.829 97.5335 240.054 97.2585C238.783 97.0978 237.434 97.2575 236.176 97.4721Z" fill="#D98C73"/>
<path d="M253.905 94.9985C254.926 95.4512 255.916 95.9516 256.841 96.521C259.621 98.2306 261.441 101.37 261.524 104.602C261.536 105.075 261.51 105.564 261.308 105.993C260.984 106.683 260.256 107.107 259.517 107.318C258.102 107.722 256.566 107.482 255.195 106.951C253.825 106.42 252.585 105.613 251.337 104.843C248.806 103.281 245.329 102.157 243.357 99.9293C242.395 98.8411 241.768 97.3663 242.05 95.9488C242.245 94.9706 242.841 94.1234 243.422 93.3088C244.675 91.5524 246.745 92.3671 248.544 92.9818C250.306 93.5838 252.151 94.2208 253.905 94.9985Z" fill="#E3AE3D"/>
<path d="M239.042 100.045H196.972C196.674 100.045 196.434 99.8068 196.434 99.5134V82.5863C196.434 82.2928 196.674 82.0547 196.972 82.0547H239.042C239.339 82.0547 239.58 82.2924 239.58 82.5863V99.5134C239.58 99.8068 239.339 100.045 239.042 100.045Z" fill="#7AC1B3"/>
<path d="M209.654 104.648C211.034 105.605 211.962 106.57 213.642 107.019C214.32 107.201 215.054 107.264 215.719 107.041C217.092 106.581 217.411 105.109 216.606 103.985C215.945 103.062 214.857 102.556 213.855 102.01C213.063 101.578 211.803 101.058 211.363 100.24C210.977 99.5219 210.816 98.7295 210.253 98.1043C209.78 97.5803 209.347 97.1111 209.124 96.4264C209.041 96.1703 208.96 95.9005 208.769 95.7082C208.579 95.5159 208.238 95.4379 208.035 95.6184C206.889 96.6405 209.749 98.4833 207.847 99.6188C207.457 99.8512 206.99 99.9183 206.536 99.9467C205.208 100.03 203.878 100.045 202.543 100.063C202.598 100.575 202.868 101.266 203.207 101.656C203.837 102.381 204.734 103.196 205.686 103.517C205.811 103.56 205.938 103.593 206.065 103.617C207.391 103.867 208.477 103.832 209.654 104.648Z" fill="#D98C73"/>
<path d="M259.996 83.2347C260.112 81.8053 259.631 80.3712 258.736 79.2409C258.002 78.3138 257.314 76.9941 256.089 76.6217C254.719 76.2054 253.445 76.2754 252.047 76.2532C250.941 76.2357 249.905 76.7035 249.37 77.7246C249.17 78.1083 249.062 78.5321 248.973 78.9546C248.668 80.4033 248.57 81.8941 248.676 83.3698C248.765 84.6007 248.874 86.161 249.634 87.1953C249.968 87.6508 250.597 87.9414 251.125 87.7293C251.768 89.9298 251.417 92.1355 251.054 94.3474C250.862 95.5226 250.874 96.8626 251.697 97.7335C252.279 98.3501 253.172 98.6048 254.026 98.5982C255.269 98.5883 256.428 98.0723 257.638 97.889C258.781 97.7155 258.705 96.9935 258.721 96.0731C258.742 94.9376 258.698 93.804 258.663 92.6695C258.595 90.4784 258.561 88.2424 259.206 86.1208C259.445 85.3341 259.775 84.5714 259.926 83.7639C259.959 83.5876 259.982 83.4109 259.996 83.2347Z" fill="#D98C73"/>
<path d="M265.519 98.5051C264.035 95.0628 261.074 92.4781 256.663 91.7041C252.263 90.932 249.599 92.686 247.925 96.8234C246.013 101.552 245.134 106.705 243.416 111.571C241.293 117.585 239.243 124.875 239.669 131.291C243.292 132.099 246.901 132.514 250.674 132.539C251.846 132.547 264.636 131.893 264.612 131.786C263.498 126.812 263.402 121.618 264.33 116.607C264.983 113.082 266.136 109.646 266.529 106.083C266.827 103.368 266.488 100.753 265.519 98.5051Z" fill="#E3AE3D"/>
<path d="M257.787 100.792C258.356 96.9974 257.016 92.3246 252.319 93.3183C249.331 93.9501 247.623 97.3296 245.375 99.0916C242.684 101.201 239.376 102.555 235.951 102.873C231.393 103.295 226.951 101.974 222.589 100.864C218.758 99.8892 211.324 97.5554 210.299 103.561C209.923 105.759 211.138 107.993 212.876 109.418C214.613 110.842 216.805 111.595 218.97 112.229C227.196 114.637 236.875 115.868 245.142 112.992C249.67 111.418 254.46 107.893 256.841 103.72C257.294 102.927 257.622 101.896 257.787 100.792Z" fill="#E3AE3D"/>
<path d="M256.733 75.9215C255.788 75.8709 254.836 75.9002 253.901 75.7646C252.855 75.6129 251.823 75.2561 250.77 75.3454C249.987 75.4121 249.106 75.8407 248.759 76.5721C248.499 77.1207 248.367 78.3885 248.944 78.775C249.127 78.8969 249.351 78.9371 249.569 78.9739C249.964 79.0415 250.36 79.1096 250.756 79.1771C251.361 79.2806 251.836 79.3765 252.142 79.8963C252.436 80.3967 252.453 81.0129 252.845 81.4788C253.305 82.0255 254.086 82.1942 254.633 82.6563C255.406 83.3088 255.502 84.2288 255.677 85.1333C255.927 86.4176 256.324 87.6409 256.467 88.9522C256.585 90.0371 256.612 91.1513 257.006 92.1705C257.625 93.7771 259.098 94.9499 260.711 95.5987C262.934 96.4931 266.148 97.5402 267.271 94.8596C268.6 91.6852 267.874 87.7732 265.491 85.2698C264.907 84.656 264.214 84.0913 263.919 83.3008C263.715 82.756 263.725 82.1597 263.634 81.586C263.205 78.8643 260.214 76.3094 257.505 75.9852C257.249 75.9555 256.991 75.9356 256.733 75.9215Z" fill="#161111"/>
<path d="M253.529 81.0531C253.726 80.8258 253.998 80.6699 254.372 80.6354C255.204 80.5593 256.055 81.1349 256.264 81.933C256.474 82.731 256 83.6525 255.217 83.9393C254.316 84.2686 253.424 83.6463 253.091 82.7778C253.058 82.6932 253.061 82.6002 253.065 82.5094C253.09 81.9821 253.209 81.4231 253.529 81.0531Z" fill="#D98C73"/>
<mask id="mask0_140_980" style="mask-type:luminance" maskUnits="userSpaceOnUse" x="248" y="76" width="13" height="23">
<path d="M259.995 83.2346C260.111 81.8052 259.63 80.3711 258.734 79.2409C258 78.3138 257.313 76.994 256.087 76.6217C254.889 76.2574 253.556 76.1057 252.309 76.2616C250.986 76.427 250.47 76.6751 249.924 77.9159C248.881 80.2875 248.864 83.0711 249.135 85.6005C249.195 86.16 249.298 86.7393 249.632 87.1948C249.967 87.6503 250.596 87.9409 251.124 87.7288C251.767 89.9293 251.416 92.135 251.053 94.3469C250.86 95.5221 250.873 96.8621 251.696 97.733C252.278 98.3496 253.171 98.6043 254.025 98.5977C255.268 98.5878 256.426 98.0718 257.637 97.8884C258.78 97.715 258.704 96.993 258.72 96.0725C258.741 94.9371 258.697 93.8035 258.662 92.669C258.594 90.4779 258.56 88.2419 259.204 86.1203C259.443 85.3335 259.774 84.5709 259.924 83.7634C259.957 83.5876 259.981 83.4109 259.995 83.2346Z" fill="white"/>
</mask>
<g mask="url(#mask0_140_980)">
<path d="M253.643 86.9445C253.716 87.0244 253.723 87.1482 253.699 87.2545C253.655 87.4553 253.519 87.6344 253.336 87.7327C253.164 87.8248 252.953 87.8504 252.811 87.9827C252.732 88.0568 252.683 88.157 252.623 88.2473C252.417 88.5511 252.086 88.7122 251.758 88.8564C251.521 88.9613 251.096 89.3218 250.847 89.06C250.751 88.9589 250.715 88.8152 250.702 88.6773C250.682 88.4632 250.71 88.2397 250.817 88.0526C250.979 87.7724 251.271 87.71 251.554 87.6131C251.909 87.4917 252.254 87.3429 252.585 87.168C252.826 87.0414 253.066 86.8982 253.337 86.8656C253.439 86.8533 253.553 86.8614 253.629 86.9299C253.634 86.9346 253.638 86.9393 253.643 86.9445Z" fill="#161111"/>
</g>
<path d="M255.285 81.7618C254.637 81.4887 253.79 81.8776 253.585 82.5429" stroke="#161111" stroke-width="0.75" stroke-miterlimit="10" stroke-linecap="round" stroke-linejoin="round"/>
<path d="M237.87 91.1905C237.627 91.0473 237.367 90.8909 237.115 90.9216C236.755 90.9656 236.564 91.4135 236.673 91.7547C236.783 92.0958 237.095 92.333 237.411 92.5079C237.991 92.8287 238.644 93.0163 239.196 93.3816C239.535 93.6055 239.829 93.891 240.166 94.1178C240.504 94.3446 240.908 94.5133 241.312 94.4584C241.716 94.4032 242.097 94.0625 242.08 93.6599C242.069 93.4061 241.91 93.1822 241.732 92.9988C241.092 92.3387 240.196 91.9957 239.331 91.7254C238.943 91.6039 238.546 91.5123 238.171 91.3526C238.076 91.3119 237.974 91.2524 237.87 91.1905Z" fill="#D98C73"/>
<path d="M242.189 113.891C247.127 112.413 251.529 109.254 254.477 105.075" stroke="#003540" stroke-width="0.75" stroke-miterlimit="10" stroke-linecap="round" stroke-linejoin="round"/>
<path d="M243.427 100.417C246.053 98.6517 248.344 96.4039 250.148 93.8235" stroke="#003540" stroke-width="0.75" stroke-miterlimit="10" stroke-linecap="round" stroke-linejoin="round"/>
<path d="M228.86 112.506C230.563 112.769 232.278 112.951 233.998 113.055" stroke="#003540" stroke-width="0.75" stroke-miterlimit="10" stroke-linecap="round" stroke-linejoin="round"/>
<path d="M235.649 112.76C236.314 112.817 236.987 112.762 237.633 112.597" stroke="#003540" stroke-width="0.75" stroke-miterlimit="10" stroke-linecap="round" stroke-linejoin="round"/>
<path d="M261.935 120.103C261.935 121.734 261.935 123.366 261.935 124.998" stroke="#003540" stroke-width="0.75" stroke-miterlimit="10" stroke-linecap="round" stroke-linejoin="round"/>
<path d="M264.769 100.024C265.225 101.329 265.322 102.753 265.048 104.107" stroke="#003540" stroke-width="0.75" stroke-miterlimit="10" stroke-linecap="round" stroke-linejoin="round"/>
<path d="M204.732 180.524C206.578 173.925 209.61 166.911 215.182 164.675C217.128 163.895 219.516 163.895 220.983 165.595C222.228 167.037 222.477 169.31 222.291 171.357C221.651 178.425 216.971 183.885 212.764 188.969C209.996 192.315 207.308 195.798 205.073 199.671C203.43 202.517 202.523 206.574 200.713 209.07C200.015 199.831 202.295 189.241 204.732 180.524Z" fill="#C85A43"/>
<path d="M194.082 181.729C193.686 180.21 193.238 178.648 192.228 177.436C191.219 176.224 189.495 175.451 188.005 175.997C187.158 176.308 186.505 176.989 185.978 177.714C184.244 180.1 183.585 183.219 184.209 186.089C185.056 189.982 187.997 193.029 190.479 196.167C193.957 200.564 195.616 205.768 198.61 210.287C198.967 207.129 197.895 203.391 197.524 200.214C196.796 193.982 195.666 187.806 194.082 181.729Z" fill="#E3AE3D"/>
<path d="M213.606 194.398C215.211 193.012 216.926 191.937 218.657 191.348C219.441 191.082 220.359 190.938 221.059 191.377C221.71 191.784 221.987 192.584 222.087 193.338C222.55 196.822 218.663 201.115 215.875 202.907C214.505 203.788 212.925 204.292 211.477 205.043C209.017 206.318 207.117 208.573 204.823 209.874C205.344 204.88 209.019 198.363 213.606 194.398Z" fill="#C85A43"/>
<path d="M215.025 197.35C209.752 201.78 205.711 207.625 203.455 214.087" stroke="#003540" stroke-width="0.75" stroke-miterlimit="10" stroke-linecap="round" stroke-linejoin="round"/>
<path d="M200.859 212.871C201.599 204.672 203.356 196.562 206.08 188.782C207.316 185.25 208.752 181.781 209.759 178.179" stroke="#003540" stroke-width="0.75" stroke-miterlimit="10" stroke-linecap="round" stroke-linejoin="round"/>
<path d="M198.912 213.421C198.816 211.292 198.619 209.165 198.254 207.065C196.985 199.757 193.725 192.954 190.499 186.256" stroke="#003540" stroke-width="0.75" stroke-miterlimit="10" stroke-linecap="round" stroke-linejoin="round"/>
<path d="M158.548 196.613C158.402 196.706 158.253 196.774 158.103 196.813C158.139 189.066 160.336 180.72 162.072 173.181C162.692 170.488 163.382 167.764 164.791 165.378C166.107 163.151 168.684 160.447 171.373 160.009C177.751 158.968 175.373 166.942 174.126 170.226C171.55 177.003 166.426 181.661 162.99 188.02C162.003 189.848 160.469 195.393 158.548 196.613Z" fill="#C85A43"/>
<path d="M158.004 145.687C158.134 145.842 158.256 146.004 158.369 146.171C161.61 150.945 161.756 157.325 161.291 162.852C161.044 165.777 160.554 168.684 159.889 171.544C159.316 174.004 157.739 176.645 157.661 179.12C156.101 173.147 155.002 167.132 152.754 161.341C151.69 158.63 150.417 155.983 149.71 153.16C149.227 151.234 149.023 149.163 149.694 147.292C150.366 145.421 152.085 143.816 154.094 143.753C155.605 143.705 157.033 144.528 158.004 145.687Z" fill="#E3AE3D"/>
<path d="M136.314 170.622C134.744 173.428 137.874 179.353 140.669 181.653C143.034 183.598 145.935 184.304 148.142 186.333C150.733 188.715 153.103 191.652 154.799 194.718C153.863 193.025 154.216 189.4 153.839 187.437C153.312 184.7 152.531 182.058 151.344 179.528C149.576 175.757 146.463 170.359 141.986 169.392C138.764 168.695 137.039 169.326 136.314 170.622Z" fill="#C85A43"/>
<path d="M168.589 168.8C166.05 175.461 163.039 181.945 160.668 188.667C158.297 195.388 156.563 202.426 156.703 209.542C156.409 203.881 155.898 198.025 154.31 192.578C152.721 187.131 150.067 181.901 146.037 177.864" stroke="#003540" stroke-width="0.75" stroke-miterlimit="10" stroke-linecap="round" stroke-linejoin="round"/>
<path d="M156.646 156.457C157.662 161.873 157.587 167.423 157.508 172.931C157.429 178.436 157.35 183.94 157.271 189.444C157.184 195.536 157.458 200.814 157.478 206.906" stroke="#003540" stroke-width="0.75" stroke-miterlimit="10" stroke-linecap="round" stroke-linejoin="round"/>
<path d="M151.69 210.27L149.81 199.59H164.769L162.928 210.266C162.838 210.791 162.416 211.172 161.926 211.172H152.692C152.202 211.172 151.782 210.793 151.69 210.27Z" fill="#003540"/>
<path d="M133.268 128.78C133.174 128.049 132.849 127.346 132.279 126.881C130.221 125.203 128.257 127.59 127.526 129.302C125.482 134.089 123.184 138.915 122.906 144.209C123.658 143.307 124.41 142.405 125.162 141.504C125.541 141.049 125.922 140.592 126.239 140.093C126.71 139.353 126.968 138.41 127.529 137.742C127.979 137.205 128.41 136.656 128.848 136.089C129.185 135.653 129.616 135.3 130.024 134.928C130.956 134.074 131.777 133.097 132.411 132.01C132.881 131.202 133.251 130.314 133.293 129.383C133.302 129.182 133.294 128.98 133.268 128.78Z" fill="#C85A43"/>
<path d="M129.612 130.785C128.985 131.468 128.788 132.42 128.442 133.276C127.917 134.576 127.036 135.777 126.082 136.794C125.121 137.819 124.662 139.097 124.213 140.416C123.807 141.609 123.265 142.816 122.966 144.04C122.71 145.091 122.557 145.919 121.877 146.825C121.309 147.58 120.634 148.256 120.127 149.052C119.79 149.581 119.532 150.156 119.285 150.732C119.167 151.008 119.053 151.334 119.205 151.593" stroke="#003540" stroke-width="0.75" stroke-miterlimit="10" stroke-linecap="round" stroke-linejoin="round"/>
<path d="M121.278 138.354C121.69 137.227 122.196 136.106 122.408 134.972C123.021 131.691 123.104 128.631 124.561 125.522C125.373 123.79 126.408 122.121 126.757 120.243C127.106 118.366 126.561 116.15 124.879 115.21C123.101 114.217 120.736 115.064 119.397 116.586C116.357 120.041 114.97 124.785 114.858 129.297C114.8 131.598 115.078 133.927 115.787 136.124C116.517 138.385 118.091 140.075 119.074 142.187C119.454 143.005 119.552 143.936 119.988 144.725C120.141 142.961 120.45 141.21 120.909 139.498C121.011 139.115 121.139 138.734 121.278 138.354Z" fill="#C85A43"/>
<path d="M121.399 123.004C120.114 125.506 118.807 128.083 118.535 130.875C118.101 135.331 120.359 139.704 120.041 144.169C119.905 146.09 119.293 147.954 119.138 149.874C118.829 153.703 120.342 157.446 120.568 161.28C120.744 164.279 120.112 167.321 118.755 170.01" stroke="#003540" stroke-width="0.75" stroke-miterlimit="10" stroke-linecap="round" stroke-linejoin="round"/>
<path d="M109.224 131.554C108.658 130.507 107.924 129.568 106.828 128.86C105.767 128.175 104.297 127.951 103.248 128.652C102.264 129.311 101.904 130.572 101.809 131.741C101.67 133.429 101.944 135.173 102.758 136.664C103.406 137.851 104.371 138.843 105.067 140.004C105.645 140.969 106.028 142.034 106.491 143.058C107.632 145.584 109.658 147.69 110.738 150.182C111.879 152.816 113.133 155.524 113.251 158.439C113.151 155.963 113.939 153.542 114.219 151.079C114.615 147.584 113.627 144.311 113.052 140.911C112.76 139.186 111.757 137.706 111.088 136.116C110.453 134.608 109.996 132.981 109.224 131.554Z" fill="#7AC1B3"/>
<path d="M113.768 170.672C112.3 161.332 114.524 151.367 110.959 142.595C110.107 140.5 109.441 139.857 108.449 137.823" stroke="#003540" stroke-width="0.75" stroke-miterlimit="10" stroke-linecap="round" stroke-linejoin="round"/>
<path d="M129.33 152.815C130.705 154.847 132.007 156.953 133.728 158.415C134.81 159.335 136.069 160.042 137.116 161.002C138.162 161.962 139.01 163.284 138.904 164.69C138.756 166.658 136.74 168.085 134.749 168.275C128.852 168.837 124.943 162.703 122.764 158.127C122.116 156.767 121.541 155.17 120.614 153.966C119.844 152.966 119.4 151.765 118.646 150.73C118.553 150.602 118.454 150.473 118.32 150.387C117.98 150.171 117.534 150.291 117.151 150.417C116.381 150.672 115.98 151.079 115.672 151.836C115.791 151.543 115.56 150.789 115.559 150.449C115.558 150.055 115.645 149.772 115.767 149.404C116.042 148.575 116.487 147.968 117.247 147.497C118.508 146.715 120.169 146.444 121.632 146.659C125.28 147.194 127.379 149.93 129.33 152.815Z" fill="#7AC1B3"/>
<path d="M130.644 160.852C128.559 158.82 126.849 156.442 125.319 153.976C124.69 152.963 124.087 151.929 123.347 150.992C122.607 150.054 121.717 149.208 120.64 148.678C119.814 148.272 118.815 148.069 117.974 148.441C116.459 149.111 115.642 151.298 115.564 152.787C115.391 156.097 116.313 162.195 116.964 165.447" stroke="#323232" stroke-width="0.75" stroke-miterlimit="10" stroke-linecap="round" stroke-linejoin="round"/>
<path d="M111.503 175.368L109.623 164.687H124.582L122.741 175.363C122.651 175.889 122.23 176.27 121.739 176.27H112.506C112.016 176.269 111.596 175.891 111.503 175.368Z" fill="#003540"/>
<path d="M97.49 133.103C97.4948 133.107 97.4991 133.111 97.5039 133.115C98.1421 133.64 98.9272 134.292 98.9856 135.11C99.0828 136.469 98.3996 137.898 97.7873 139.091C97.2287 140.18 96.3785 141.207 95.3085 141.839C94.3429 142.409 92.8139 142.686 91.7966 142.101C91.7559 142.078 91.7143 142.053 91.6674 142.05C91.6209 142.047 91.5764 142.067 91.5338 142.086C90.7597 142.44 90.145 142.843 89.5538 143.452C88.3154 144.726 87.1851 146.102 86.1788 147.562C84.5071 146.996 82.0474 144.846 80.9268 143.497C83.5142 139.523 87.1133 137.273 90.292 133.742C92.2145 131.607 95.2319 131.256 97.49 133.103Z" fill="#D98C73"/>
<path d="M101.173 133.343C100.774 132.638 99.8307 132.605 99.1208 132.431C98.4285 132.262 97.8335 131.902 97.2705 131.475C97.4352 131.6 98.4888 129.57 98.5281 129.362C98.6966 128.476 98.4477 127.499 97.8359 126.825C96.8583 125.746 95.156 125.462 93.7902 125.988C92.3023 126.562 91.1927 128.183 91.5445 129.721C90.4482 129.5 89.3548 130.054 88.4098 130.646C87.8703 130.984 87.3265 131.357 86.9943 131.895C86.7171 132.344 86.6099 132.872 86.5069 133.388C86.2436 134.71 85.9617 136.028 85.7166 137.353C85.4753 138.656 86.3035 138.684 87.4347 138.684C88.2164 138.405 88.7086 137.531 89.1796 136.911C89.6789 136.253 90.1902 135.372 91.0715 135.178C91.8107 135.016 92.1592 135.76 92.6748 136.103C93.3718 136.568 94.3508 136.47 95.1057 136.212C95.3527 136.127 95.594 136.017 95.853 135.982C96.979 135.833 97.3591 136.97 98.3112 137.157C99.3347 137.358 100.467 136.39 100.989 135.557C101.334 135.008 101.512 133.942 101.173 133.343Z" fill="#161111"/>
<path d="M89.2669 133.775C89.4527 133.749 89.6384 133.724 89.8246 133.701C90.6428 133.598 91.38 133.722 92.2029 133.543C93.1781 133.33 94.1346 133.037 95.0724 132.699C95.5272 132.535 97.431 131.426 97.8169 131.565C98.2171 131.717 98.6044 131.9 98.974 132.114C99.019 132.14 99.0673 132.172 99.0802 132.222C99.1741 132.586 97.7556 133.995 97.4928 134.226C96.7249 134.902 95.7761 135.36 94.8364 135.754C93.7468 136.211 92.6213 136.617 91.4465 136.764C89.4373 137.013 87.4013 136.488 85.3826 136.643C85.5669 136.034 85.7517 135.426 85.936 134.818C85.9858 134.653 86.0403 134.481 86.1667 134.363C86.3151 134.223 86.532 134.187 86.7345 134.157C87.5785 134.032 88.422 133.892 89.2669 133.775Z" fill="#C85A43"/>
<path d="M99.3518 132.779C99.776 132.672 100.155 132.528 100.42 132.355C100.773 132.125 101.042 131.791 101.283 131.447C101.636 130.942 101.942 130.403 102.193 129.841C101.405 129.743 100.599 129.647 99.8214 129.808C98.9832 129.982 97.931 130.602 97.9769 131.561C97.8395 130.881 97.3225 130.329 96.7294 129.958C96.1358 129.587 95.3866 129.469 94.7058 129.637C94.668 130.561 95.1802 131.421 95.7791 132.132C96.0338 132.434 96.3244 132.732 96.7031 132.853C97.3517 133.061 98.4528 133.006 99.3518 132.779Z" fill="#C85A43"/>
<path d="M91.6826 142.178C91.3418 142.177 91.0435 142.305 90.7721 142.506C90.7448 142.526 90.7199 142.55 90.6936 142.571C90.5935 142.24 90.4475 141.875 90.4241 141.786C90.2718 141.208 90.1612 140.619 90.0938 140.025C90.201 140.184 90.3077 140.342 90.415 140.5C90.9435 141.282 91.482 141.963 92.4232 142.257C92.3629 142.28 92.3064 142.302 92.2485 142.326C92.0723 142.24 91.8918 142.179 91.6826 142.178Z" fill="#161111"/>
<path d="M94.4295 140.021C94.418 140.293 94.462 140.573 94.5956 140.811C94.7292 141.049 94.9604 141.241 95.2309 141.292" stroke="#003540" stroke-width="0.75" stroke-miterlimit="10" stroke-linecap="round" stroke-linejoin="round"/>
<path d="M93.3326 136.671C93.3164 136.073 93.2043 135.396 92.6993 135.066C91.9013 134.545 90.4512 134.937 90.1812 135.874C89.9701 136.605 90.4321 137.46 91.1645 137.695" fill="#D98C73"/>
<path d="M91.8994 135.543C92.4672 135.661 92.8339 136.345 92.6127 136.875" stroke="#003540" stroke-width="0.75" stroke-miterlimit="10" stroke-linecap="round" stroke-linejoin="round"/>
<path d="M92.8482 211.374C92.6845 210.891 92.7103 210.299 92.7845 209.814C93.2398 206.837 93.37 203.411 94.191 200.611C94.5697 199.319 95.6372 199.983 96.7794 200.222C98.1074 200.499 99.5479 200.928 100.818 200.873C100.598 201.219 100.349 201.567 100.251 202.003C100.05 202.902 99.8476 203.8 99.646 204.699C99.5125 205.293 99.3894 205.965 99.6958 206.576C99.951 207.085 100.445 207.414 100.921 207.619C102.635 208.361 104.367 207.938 106.111 208.205C107.628 208.437 109.019 210.056 108.632 211.373H92.8482V211.374Z" fill="black"/>
<path d="M36.5714 205.338C35.8126 206.056 34.3539 206.905 34.8039 208.112C35.1917 209.151 36.6623 209.543 36.9917 210.689C37.0549 210.909 37.0405 211.196 36.8366 211.305C36.7437 211.355 36.6326 211.355 36.5273 211.352C35.3224 211.325 32.8617 211.415 31.8804 210.635C31.0139 209.947 30.6831 208.066 30.6816 207.056C30.6793 204.878 31.2427 202.467 31.9311 200.413C32.2112 199.578 32.643 197.712 33.4731 197.231C34.1725 196.825 35.5996 197.599 36.2578 197.893C38.0554 198.696 39.808 199.596 41.5051 200.59C42.1724 200.981 42.8857 201.458 43.0748 202.2C43.1614 202.54 43.1241 202.9 43.06 203.245C42.8895 204.159 42.475 205.454 41.5132 205.817C39.8827 206.434 38.4934 204.24 37.2085 204.812C37.0601 204.878 36.9395 204.991 36.8222 205.103C36.7384 205.18 36.6551 205.259 36.5714 205.338Z" fill="black"/>
<path d="M63.5255 174.917C63.4527 174.179 63.4771 173.43 63.594 172.707C63.8237 171.288 64.3977 169.872 65.4801 168.91C66.3605 168.128 67.5032 167.704 68.632 167.348C71.6135 166.408 74.5485 166.189 77.5736 165.686C80.0074 165.282 82.447 164.897 84.9033 164.647C87.0647 164.427 89.2687 164.115 91.435 164.059C92.3766 164.035 93.3178 164.011 94.2599 163.987C98.1203 163.887 100.813 166.097 102.046 169.758C102.624 171.471 102.699 173.305 102.739 175.111C102.962 185.222 102.244 195.354 100.597 205.336C100.551 205.617 89.9571 204.209 89.0801 203.85C89.1433 199.248 89.3305 194.648 89.6421 190.056C89.6819 189.469 90.2587 178.974 90.1534 178.986C84.8583 179.589 75.8143 182.899 70.5187 183.502C67.6712 183.826 68.251 181.361 65.9737 179.643C64.4992 178.53 63.7079 176.76 63.5255 174.917Z" fill="#4B98B8"/>
<path d="M38.8949 198.076C42.39 198.231 45.8852 198.387 49.3803 198.542C52.9142 198.699 56.5396 199.132 60.0577 199.286C60.5791 199.309 61.098 199.326 61.614 199.335C60.1128 196.377 58.6508 193.4 57.2285 190.404C55.8842 187.574 54.5677 184.706 53.8214 181.667C52.8697 177.796 52.8673 173.742 53.9885 169.905C54.5515 167.978 55.3787 166.133 56.4012 164.401C56.7531 163.805 57.3912 162.3 58.0208 161.982C58.7307 161.623 60.3239 162.122 61.0946 162.233C67.4099 163.145 73.8033 164.077 79.6867 166.518C79.4297 166.412 77.4181 168.759 77.0619 169.1C75.8168 170.296 74.7899 171.812 73.774 173.196C72.3858 175.088 72.6036 177.058 72.7572 179.322C73.19 185.69 74.4371 191.966 75.249 198.291C75.519 200.397 76.0245 204.269 75.5252 206.332C73.9483 212.85 58.2855 211.343 52.6878 211.055C45.136 210.667 41.2023 209.779 39.6163 209.299C39.1338 205.577 38.858 201.835 38.8949 198.076Z" fill="#4B98B8"/>
<path d="M107.184 170.858C107.841 169.167 111.021 169.908 112.424 170.137C113.966 170.389 115.127 170.137 116.54 169.447C117.664 168.898 118.808 168.272 120.061 168.229C120.119 168.227 120.178 168.227 120.231 168.248C120.396 168.315 120.409 168.56 120.3 168.7C120.191 168.839 120.012 168.902 119.846 168.966C119.443 169.123 118.704 169.473 118.582 169.942C118.426 170.542 123.409 169.61 123.947 169.995C124.401 170.319 124.571 170.918 124.556 171.47C124.515 172.98 123.424 173.948 121.998 174.197C120.172 174.515 118.284 174.833 116.481 174.404C115.465 174.161 114.652 174.338 113.632 174.297C112.461 174.251 111.288 174.201 110.122 174.069C109.349 173.981 108.542 173.842 107.932 173.366C107.424 172.968 107.101 172.35 107.067 171.711C107.05 171.374 107.093 171.092 107.184 170.858Z" fill="#D98C73"/>
<path d="M70.0406 168.486C67.9993 167.804 66.0174 166.955 63.9613 166.316C62.4318 165.84 60.8463 165.531 59.2569 165.326C58.1956 165.189 56.9529 165.062 55.7168 165.095C56.7977 163.243 57.8787 161.39 58.9597 159.538C59.3771 158.823 59.795 158.107 60.2723 157.429C61.1101 156.239 62.1216 155.18 63.1465 154.143C66.0261 151.23 69.0468 148.452 72.1939 145.822C73.9609 144.345 75.6977 142.571 77.716 141.426C79.5183 140.404 81.7516 140.704 83.7048 141.047C86.6757 141.569 88.5389 143.225 89.7414 145.973C90.3365 147.332 90.0636 149.113 89.7218 150.519C88.6883 154.774 85.3252 156.136 82.0269 158.499C79.2 160.524 77.1477 163.402 75.0351 166.148C74.4477 166.912 73.7636 168.146 72.956 168.688C71.9651 169.353 71.2039 168.875 70.0406 168.486Z" fill="#E3AE3D"/>
<path d="M79.7508 156.633C80.4392 156.342 81.1525 156.115 81.8912 155.987C83.5543 155.698 85.474 156.431 87.0188 156.942C83.606 160.19 79.9433 163.216 77.0293 166.995C76.1312 168.16 75.2738 169.383 74.1177 170.3C72.2718 171.766 70.6771 171.627 68.6191 170.88C66.8895 170.253 63.6308 169.362 62.6069 167.674C61.7696 166.294 62.7715 166.429 64.145 165.868C65.2982 165.396 66.4275 164.865 67.5296 164.287C70.9869 162.475 74.0181 160.058 77.2931 157.959C78.0715 157.46 78.8911 156.996 79.7508 156.633Z" fill="#4B98B8"/>
<path d="M80.5929 148.216C80.8844 147.432 81.4249 146.742 82.0056 146.085C82.7917 145.194 83.8176 144.421 85.0297 144.132C86.2418 143.843 87.5516 144.101 88.386 145.008C89.0385 145.717 89.793 146.079 89.9423 146.929C90.5283 150.268 90.6408 154.125 91.8242 157.251C92.2991 158.506 92.5423 159.526 93.3958 160.569C94.4303 161.833 95.6736 162.862 97.0719 163.766C98.07 164.411 99.0323 164.969 100.165 165.45C104.646 167.351 109.405 168.336 114.224 169.107C114.126 171.632 114.145 172.807 114.222 175.333C113.336 175.249 112.443 175.183 111.554 175.08C104.804 174.291 98.3889 174.865 92.4939 171.249C87.8877 168.424 84.5802 164.711 81.9209 159.973C79.8777 156.332 79.0911 152.255 80.5929 148.216Z" fill="#E3AE3D"/>
<path d="M73.2627 184.815C72.3139 180.954 71.7485 177.001 71.5771 173.031" stroke="#003540" stroke-width="0.75" stroke-miterlimit="10" stroke-linecap="round" stroke-linejoin="round"/>
<path d="M90.2002 179.421C90.6751 177.887 91.2596 176.386 91.948 174.933" stroke="#003540" stroke-width="0.75" stroke-miterlimit="10" stroke-linecap="round" stroke-linejoin="round"/>
<path d="M82.5218 161.142C80.6189 158.278 80.0741 155.684 79.2393 152.36" stroke="#003540" stroke-width="0.75" stroke-miterlimit="10" stroke-linecap="round" stroke-linejoin="round"/>
<path d="M61.6523 199.436C62.5145 200.058 63.337 200.734 64.1125 201.459" stroke="#003540" stroke-width="0.75" stroke-miterlimit="10" stroke-linecap="round" stroke-linejoin="round"/>
<path d="M90.9385 154.142C91.5728 157.865 93.6782 161.324 96.7099 163.627" stroke="#003540" stroke-width="0.75" stroke-miterlimit="10" stroke-linecap="round" stroke-linejoin="round"/>
<path d="M95.9922 171.6C94.0127 171.149 92.1715 170.123 90.7588 168.682" stroke="#003540" stroke-width="0.75" stroke-miterlimit="10" stroke-linecap="round" stroke-linejoin="round"/>
<path d="M90.0907 168.053C89.6489 167.603 89.2075 167.154 88.7656 166.705" stroke="#003540" stroke-width="0.75" stroke-miterlimit="10" stroke-linecap="round" stroke-linejoin="round"/>
<path d="M54.8281 180.24C54.9684 181.634 55.3662 183.002 55.9957 184.258" stroke="#003540" stroke-width="0.75" stroke-miterlimit="10" stroke-linecap="round" stroke-linejoin="round"/>
<path d="M56.3682 185.552C56.6492 186.236 56.9297 186.919 57.2107 187.602" stroke="#003540" stroke-width="0.75" stroke-miterlimit="10" stroke-linecap="round" stroke-linejoin="round"/>
<path d="M45.9169 199.269C44.2509 199.225 42.5859 199.148 40.9229 199.039" stroke="#003540" stroke-width="0.75" stroke-miterlimit="10" stroke-linecap="round" stroke-linejoin="round"/>
<path d="M90.4212 194.125C90.3944 196.224 90.3676 198.323 90.3408 200.422" stroke="#003540" stroke-width="0.75" stroke-miterlimit="10" stroke-linecap="round" stroke-linejoin="round"/>
<path d="M81.636 139.712C78.993 139.702 76.6765 141.408 74.6898 142.972C70.3023 146.425 65.9871 150.017 62.3464 154.232C58.7058 158.447 55.7425 163.334 54.4121 168.715C54.9373 168.919 55.4624 169.123 55.9881 169.327C57.6061 160.898 64.043 154.197 70.839 148.849C73.8042 146.516 76.5477 144.048 80.0151 142.43C80.5829 142.165 81.177 141.916 81.8046 141.888C82.2866 141.867 82.7639 141.978 83.2302 142.102C85.1781 142.616 87.4286 143.285 89.0175 144.514C89.1735 143.765 88.7345 142.957 88.2204 142.418C87.6732 141.846 86.9642 141.452 86.2543 141.094C85.012 140.468 83.7051 139.914 82.3197 139.752C82.0894 139.726 81.861 139.713 81.636 139.712Z" fill="#4B98B8"/>
<path d="M61.7306 157.081C61.0446 158.157 60.3858 159.25 59.7549 160.358" stroke="#003540" stroke-width="0.75" stroke-miterlimit="10" stroke-linecap="round" stroke-linejoin="round"/>
<path d="M81.3568 162.288C81.2419 162.388 81.1199 162.475 80.9724 162.513C80.7929 162.241 80.892 161.698 80.8657 161.378C80.8341 160.992 80.7718 160.593 80.5042 160.29C80.3711 160.14 80.1954 160.024 80.0944 159.851C79.9752 159.646 79.98 159.395 79.9977 159.159C80.0609 158.304 80.2424 157.458 80.5349 156.65C80.5832 157.233 80.8355 157.778 81.084 158.309C81.3176 158.808 81.5512 159.307 81.7853 159.806C81.9533 160.165 82.163 160.5 82.3669 160.84C82.5986 161.226 82.4033 161.448 82.0567 161.728C81.9385 161.823 81.8049 161.899 81.6857 161.993C81.5718 162.083 81.4674 162.192 81.3568 162.288Z" fill="#161111"/>
<mask id="mask1_140_980" style="mask-type:luminance" maskUnits="userSpaceOnUse" x="37" y="161" width="43" height="51">
<path d="M37.9659 204.679C37.6356 202.504 37.7093 200.238 37.5557 198.016C41.4965 198.191 45.4373 198.367 49.3786 198.542C52.9126 198.699 56.5379 199.132 60.0561 199.286C60.5774 199.309 61.0963 199.326 61.6124 199.335C60.1111 196.377 58.6491 193.4 57.2268 190.404C55.8826 187.574 54.5661 184.706 53.8193 181.667C52.8676 177.796 52.8652 173.742 53.9863 169.905C54.5493 167.978 55.3765 166.133 56.3991 164.401C56.751 163.805 57.3891 162.3 58.0186 161.982C58.7286 161.623 60.3217 162.122 61.0925 162.233C67.4073 163.144 73.8011 164.077 79.6846 166.518C79.427 166.411 77.4159 168.758 77.0602 169.1C75.8151 170.296 74.7882 171.812 73.7724 173.196C72.3841 175.088 72.6019 177.059 72.7556 179.322C73.1883 185.69 74.4354 191.966 75.2473 198.291C75.5173 200.397 75.737 202.557 75.2377 204.621C73.6608 211.138 66.6509 210.599 61.3223 210.718C55.6193 210.845 50.8354 210.799 45.242 211.162C43.2491 211.291 40.9565 211.283 38.8267 211.285C38.5763 209.079 38.2996 206.875 37.9659 204.679Z" fill="white"/>
</mask>
<g mask="url(#mask1_140_980)">
<path d="M62.3358 199.898C62.6901 200.187 63.0443 200.476 63.3986 200.765C63.5427 200.883 63.7256 200.993 63.8338 201.144C63.8941 201.228 63.9529 201.337 63.7916 201.276C63.6131 201.208 63.4374 201.139 63.2526 201.088C62.8873 200.989 62.5082 200.938 62.1285 200.94C61.9907 200.94 61.8514 200.948 61.7202 200.99C61.6321 201.018 61.5479 201.061 61.4564 201.077C61.354 201.095 61.2477 201.078 61.1496 201.045C61.0179 201.001 60.8963 200.928 60.7958 200.833C60.7249 200.767 60.6646 200.69 60.5885 200.629C60.4099 200.486 60.1682 200.449 59.9384 200.435C59.7086 200.421 59.4721 200.424 59.2581 200.34C59.0269 200.25 58.8397 200.061 58.7421 199.835C58.6444 199.609 58.6339 199.351 58.7009 199.114C58.744 198.962 58.8196 198.817 58.9336 198.706C59.1763 198.471 59.5511 198.428 59.8896 198.461C60.3721 198.508 60.8393 198.689 61.2305 198.971C61.624 199.254 61.96 199.591 62.3358 199.898Z" fill="#161111"/>
</g>
<path d="M78.1601 165.298C77.3956 166.456 76.2912 167.392 75.0163 167.963C74.3179 168.276 73.5624 168.486 72.9406 168.929C72.1818 169.47 71.6801 170.347 71.6035 171.268" stroke="#003540" stroke-width="0.75" stroke-miterlimit="10" stroke-linecap="round" stroke-linejoin="round"/>
<path d="M124.481 170.821C123.163 170.974 121.675 171.056 120.351 171.143" stroke="#323232" stroke-width="0.5" stroke-miterlimit="10" stroke-linecap="round" stroke-linejoin="round"/>
<path d="M124.516 171.592C123.157 172.026 121.734 172.12 120.307 172.106" stroke="#323232" stroke-width="0.5" stroke-miterlimit="10" stroke-linecap="round" stroke-linejoin="round"/>
<path d="M124.362 172.465C123.134 172.984 121.808 173.278 120.473 173.327" stroke="#323232" stroke-width="0.5" stroke-miterlimit="10" stroke-linecap="round" stroke-linejoin="round"/>
<path d="M161.5 0V24.4123" stroke="#003540" stroke-miterlimit="10" stroke-linecap="round" stroke-linejoin="round"/>
<path d="M167.029 34.579C168.199 31.9858 167.018 28.9474 164.39 27.7926C161.763 26.6378 158.685 27.8038 157.515 30.3971C156.345 32.9903 157.526 36.0287 160.154 37.1835C162.781 38.3383 165.859 37.1723 167.029 34.579Z" fill="#C85A43"/>
<path d="M184.112 33.5906C180.988 24.2111 172.048 17.4365 161.5 17.4365C150.951 17.4365 142.011 24.2111 138.887 33.5906H184.112Z" fill="#161111"/>
<path d="M181.585 32.1219C178.81 24.4477 170.869 18.905 161.5 18.905C152.13 18.905 144.19 24.4477 141.414 32.1219H181.585Z" stroke="#E3AE3D" stroke-miterlimit="10"/>
</g>
<defs>
<clipPath id="clip0_140_980">
<rect width="323" height="216" fill="white"/>
</clipPath>
</defs>
</svg>
