<svg width="16" height="16" viewBox="0 0 16 16" fill="none" xmlns="http://www.w3.org/2000/svg">
<g id="ArrowUpRight">
<path id="Vector" d="M3.49997 4V10.5C3.49997 10.6326 3.55264 10.7598 3.64641 10.8536C3.74018 10.9473 3.86736 11 3.99997 11C4.13257 11 4.25975 10.9473 4.35352 10.8536C4.44729 10.7598 4.49997 10.6326 4.49997 10.5V5.20687L11.6462 12.3538C11.74 12.4476 11.8673 12.5003 12 12.5003C12.1326 12.5003 12.2599 12.4476 12.3537 12.3538C12.4475 12.2599 12.5002 12.1327 12.5002 12C12.5002 11.8673 12.4475 11.7401 12.3537 11.6462L5.20684 4.5H10.5C10.6326 4.5 10.7598 4.44732 10.8535 4.35355C10.9473 4.25979 11 4.13261 11 4C11 3.86739 10.9473 3.74021 10.8535 3.64645C10.7598 3.55268 10.6326 3.5 10.5 3.5H3.99997C3.86736 3.5 3.74018 3.55268 3.64641 3.64645C3.55264 3.74021 3.49997 3.86739 3.49997 4Z" fill="#003540"/>
</g>
</svg>
